<?xml version="1.0" encoding="UTF-8"?>
<svg width="50px" height="50px" viewBox="0 0 50 50" version="1.1" xmlns="http://www.w3.org/2000/svg" xmlns:xlink="http://www.w3.org/1999/xlink">
    <!-- Generator: Sketch 63.1 (92452) - https://sketch.com -->
    <title>biscuit</title>
    <desc>Created with Sketch.</desc>
    <g id="cakes" stroke="none" stroke-width="1" fill="none" fill-rule="evenodd">
        <g id="biscuit">
            <circle id="Oval" fill="#F39898" cx="25" cy="25" r="25"></circle>
            <circle id="Oval" fill="#D5A150" fill-rule="nonzero" cx="25.5" cy="24.5" r="17.5"></circle>
            <path d="M36.4282124,11 C38.7897311,13.9686292 40.2013719,17.7266515 40.2013719,21.814748 C40.2013719,31.4171189 32.4171421,39.2013658 22.8147922,39.2013658 C18.7267047,39.2013658 14.9686227,37.7897218 12,35.428198 C15.1852757,39.4323497 20.0991578,42 25.6134203,42 C35.2157702,42 43,34.2157531 43,24.6133822 C43,19.0991756 40.4323553,14.1852148 36.4282124,11 Z" id="Path" fill="#AD712C" fill-rule="nonzero"></path>
            <path d="M17.1216287,17 C16.7623372,17 16.4030458,16.8629428 16.1289268,16.5888965 C14.6236911,15.0840599 14.6236911,12.6354223 16.1289268,11.1304496 C16.8581392,10.4014305 17.827538,10 18.8588741,10 C19.8901421,10 20.859609,10.4014986 21.5888215,11.1304496 C22.1370595,11.6786104 22.1370595,12.5672343 21.5888215,13.1153951 C21.0404472,13.6634196 20.1515875,13.6634877 19.6033495,13.1153951 C19.4044548,12.9165531 19.1400795,12.8070163 18.8588741,12.8070163 C18.5776688,12.8070163 18.3132253,12.9165531 18.1143988,13.1153951 C17.7037994,13.5258856 17.7037994,14.1936649 18.1143988,14.6040191 C18.6627049,15.1521798 18.6627049,16.0408038 18.1143988,16.5888965 C17.8402116,16.8630109 17.4809202,17 17.1216287,17 Z" id="Path" fill="#C98A2E" fill-rule="nonzero"></path>
            <circle id="Oval" fill="#674230" fill-rule="nonzero" cx="19.5" cy="13.5" r="2.5"></circle>
            <path d="M17.0075689,13.3890277 C17.0066322,13.3992151 17.0057676,13.4093292 17.004903,13.4195167 C16.9340767,14.293803 17.6401782,15.0308156 18.5020543,14.9990073 C18.5591189,14.9968819 18.6166878,14.9929242 18.6744728,14.9869876 C19.8973974,14.8615137 20.8779418,13.8557437 20.9925032,12.6108989 C20.9934398,12.6007115 20.9943044,12.5905974 20.995097,12.5804832 C21.0659233,11.7062702 20.3598218,10.9691843 19.4979457,11.0009926 C19.4408811,11.003118 19.3833122,11.0070757 19.3255272,11.0130123 C18.1026747,11.1384129 17.1221303,12.1441829 17.0075689,13.3890277 Z" id="Path" fill="#7A5436" fill-rule="nonzero"></path>
            <path d="M12.1216287,28 C11.7623372,28 11.4030458,27.8629414 11.1289268,27.5888925 C9.62369108,26.0840413 9.62369108,23.6353799 11.1289268,22.1303925 C11.8581392,21.4014344 12.8276061,21 13.8588741,21 C14.8901421,21 15.859609,21.4015025 16.5888215,22.1304606 C17.1370595,22.6786267 17.1370595,23.5672593 16.5888215,24.1154254 C16.0404472,24.6634553 15.1515875,24.6635234 14.6033495,24.1154254 C14.4044548,23.9165815 14.1400795,23.8070437 13.8588741,23.8070437 C13.5776688,23.8070437 13.3132253,23.9165815 13.1143988,24.1154254 C12.7037994,24.5259199 12.7037994,25.1937057 13.1143988,25.6040639 C13.6627049,26.15223 13.6627049,27.0408626 13.1143988,27.5889606 C12.8402116,27.8630096 12.480852,28 12.1216287,28 Z" id="Path" fill="#C98A2E" fill-rule="nonzero"></path>
            <circle id="Oval" fill="#674230" fill-rule="nonzero" cx="13.5" cy="25.5" r="2.5"></circle>
            <path d="M11.0075689,24.3890276 C11.0066322,24.399215 11.0057676,24.4093292 11.004903,24.4195166 C10.9340767,25.2938762 11.6401782,26.0308155 12.5020543,25.9990072 C12.5591189,25.9968818 12.6166878,25.9929241 12.6744728,25.9869876 C13.8973974,25.8615137 14.8779418,24.8557436 14.9925032,23.6108989 C14.9934398,23.6007115 14.9943044,23.5905973 14.995097,23.5804832 C15.0659233,22.7062702 14.3598218,21.9691843 13.4979457,22.0009926 C13.4408811,22.003118 13.3833122,22.0070757 13.3255272,22.0130123 C12.1027467,22.1384129 11.1222023,23.1441829 11.0075689,24.3890276 Z" id="Path" fill="#7A5436" fill-rule="nonzero"></path>
            <path d="M17.1216287,35 C16.7623372,35 16.4030458,34.8629428 16.1289268,34.5888965 C14.6236911,33.0840599 14.6236911,30.6354223 16.1289268,29.1304496 C16.8581392,28.4014305 17.827538,28 18.8588741,28 C19.8902103,28 20.859609,28.4014986 21.5888215,29.1304496 C22.1370595,29.6786104 22.1370595,30.5672343 21.5888215,31.1153951 C21.0404472,31.6634196 20.1515875,31.6634877 19.6033495,31.1153951 C19.4045229,30.9165531 19.1400795,30.8070163 18.8588741,30.8070163 C18.5776688,30.8070163 18.3132253,30.9165531 18.1143988,31.1153951 C17.7037994,31.5258856 17.7037994,32.1936649 18.1143988,32.6040191 C18.6627049,33.1521798 18.6627049,34.0408038 18.1143988,34.5888965 C17.8402116,34.8630109 17.480852,35 17.1216287,35 Z" id="Path" fill="#C98A2E" fill-rule="nonzero"></path>
            <circle id="Oval" fill="#674230" fill-rule="nonzero" cx="18.5" cy="32.5" r="2.5"></circle>
            <path d="M16.0075689,31.3890259 C16.0066322,31.3992133 16.0057676,31.4093275 16.004903,31.4195149 C15.9340767,32.2938022 16.6401782,33.0308156 17.5020543,32.9990073 C17.5591189,32.9968819 17.6166878,32.9929242 17.6744728,32.9869876 C18.8973974,32.8615136 19.8779418,31.8557424 19.9925032,30.6108963 C19.9934398,30.6007089 19.9943044,30.5905947 19.995097,30.5804806 C20.0659233,29.7062666 19.3598218,28.9692532 18.4979457,29.0009882 C18.4408811,29.0031136 18.3833122,29.0070713 18.3255272,29.0130079 C17.1026747,29.1384086 16.1222023,30.1441798 16.0075689,31.3890259 Z" id="Path" fill="#7A5436" fill-rule="nonzero"></path>
            <path d="M24.1216287,40 C23.7623372,40 23.4030458,39.8629428 23.1289268,39.5888965 C21.6236911,38.0840599 21.6236911,35.6354223 23.1289268,34.1304496 C23.8581392,33.4014305 24.827538,33 25.8588741,33 C26.8901421,33 27.859609,33.4014986 28.5888215,34.1304496 C29.1370595,34.6786104 29.1370595,35.5672343 28.5888215,36.1153951 C28.0404472,36.6634196 27.1515875,36.6634877 26.6033495,36.1153951 C26.4044548,35.9165531 26.1400795,35.8070163 25.8588741,35.8070163 C25.5776688,35.8070163 25.3132253,35.9165531 25.1143988,36.1153951 C24.7037994,36.5258856 24.7037994,37.1936649 25.1143988,37.6040191 C25.6627049,38.1521798 25.6627049,39.0408038 25.1143988,39.5888965 C24.8402116,39.8630109 24.480852,40 24.1216287,40 Z" id="Path" fill="#C98A2E" fill-rule="nonzero"></path>
            <circle id="Oval" fill="#674230" fill-rule="nonzero" cx="26.5" cy="37.5" r="2.5"></circle>
            <path d="M24.0075689,36.3890259 C24.0066322,36.3992133 24.0057676,36.4093275 24.004903,36.4195149 C23.9340767,37.2938022 24.6401782,38.0308156 25.5020543,37.9990073 C25.5591189,37.9968819 25.6166878,37.9929242 25.6744728,37.9869876 C26.8973974,37.8615136 27.8779418,36.8557424 27.9925032,35.6108963 C27.9934398,35.6007089 27.9943044,35.5905947 27.995097,35.5804806 C28.0659233,34.7062666 27.3598218,33.9692532 26.4979457,34.0009882 C26.4408811,34.0031136 26.3833122,34.0070713 26.3255272,34.0130079 C25.1026747,34.1384819 24.1221303,35.1442531 24.0075689,36.3890259 Z" id="Path" fill="#7A5436" fill-rule="nonzero"></path>
            <path d="M26.1216287,20 C25.7623372,20 25.4030458,19.8629428 25.1289268,19.5888965 C23.6236911,18.0840599 23.6236911,15.6354223 25.1289268,14.1304496 C25.8581392,13.4014305 26.827538,13 27.8588741,13 C28.8902103,13 29.859609,13.4014986 30.5888215,14.1304496 C31.1370595,14.6786104 31.1370595,15.5672343 30.5888215,16.1153951 C30.0404472,16.6634196 29.1515875,16.6634877 28.6033495,16.1153951 C28.4044548,15.9165531 28.1400795,15.8070163 27.8588741,15.8070163 C27.5776688,15.8070163 27.3132253,15.9165531 27.1143988,16.1153951 C26.7037994,16.5258856 26.7037994,17.1936649 27.1143988,17.6040191 C27.6627049,18.1521798 27.6627049,19.0408038 27.1143988,19.5888965 C26.8402116,19.8630109 26.4809202,20 26.1216287,20 Z" id="Path" fill="#C98A2E" fill-rule="nonzero"></path>
            <circle id="Oval" fill="#674230" fill-rule="nonzero" cx="27.5" cy="17.5" r="2.5"></circle>
            <path d="M25.0075689,17.3890277 C25.0066322,17.3992151 25.0057676,17.4093292 25.004903,17.4195167 C24.9340767,18.293803 25.6401782,19.0308156 26.5020543,18.9990073 C26.5591189,18.9968819 26.6166878,18.9929242 26.6744728,18.9869876 C27.8973974,18.8615137 28.8779418,17.8557437 28.9925032,16.6108989 C28.9934398,16.6007115 28.9943044,16.5905974 28.995097,16.5804832 C29.0659233,15.7062702 28.3598218,14.9691843 27.4979457,15.0009926 C27.4408811,15.003118 27.3833122,15.0070757 27.3255272,15.0130123 C26.1026747,15.1384129 25.1221303,16.1441829 25.0075689,17.3890277 Z" id="Path" fill="#7A5436" fill-rule="nonzero"></path>
            <path d="M34.1216287,33 C33.7623372,33 33.4030458,32.8629428 33.1289268,32.5888965 C31.6236911,31.0840599 31.6236911,28.6354223 33.1289268,27.1304496 C33.8581392,26.4014305 34.827538,26 35.8588741,26 C36.8902103,26 37.859609,26.4014986 38.5888215,27.1304496 C39.1370595,27.6786104 39.1370595,28.5672343 38.5888215,29.1153951 C38.0404472,29.6634196 37.1515875,29.6634877 36.6033495,29.1153951 C36.4044548,28.9165531 36.1400795,28.8070163 35.8588741,28.8070163 C35.5776688,28.8070163 35.3132253,28.9165531 35.1143988,29.1153951 C34.7037994,29.5258856 34.7037994,30.1936649 35.1143988,30.6040191 C35.6627049,31.1521798 35.6627049,32.0408038 35.1143988,32.5888965 C34.8402116,32.8630109 34.480852,33 34.1216287,33 Z" id="Path" fill="#C98A2E" fill-rule="nonzero"></path>
            <circle id="Oval" fill="#674230" fill-rule="nonzero" cx="36.5" cy="29.5" r="2.5"></circle>
            <path d="M34.0074968,29.3890259 C34.0065602,29.3992133 34.0056956,29.4093275 34.004903,29.4195149 C33.9340767,30.2938022 34.6401782,31.0308156 35.5020543,30.9990073 C35.5591189,30.9968819 35.6166878,30.9929242 35.6744728,30.9869876 C36.8973974,30.8615136 37.8779418,29.8557424 37.9925032,28.6108963 C37.9934398,28.6007089 37.9943044,28.5905947 37.995097,28.5804806 C38.0659233,27.7062666 37.3598218,26.9692532 36.4979457,27.0009882 C36.4408811,27.0031136 36.3833122,27.0070713 36.3255272,27.0130079 C35.1026747,27.1384819 34.1221303,28.1442531 34.0074968,29.3890259 Z" id="Path" fill="#7A5436" fill-rule="nonzero"></path>
            <path d="M34.1216287,20 C33.7623372,20 33.4030458,19.8629428 33.1289268,19.5888965 C31.6236911,18.0840599 31.6236911,15.6354223 33.1289268,14.1304496 C33.8581392,13.4014305 34.827538,13 35.8588741,13 C36.8902103,13 37.859609,13.4014986 38.5888215,14.1304496 C39.1370595,14.6786104 39.1370595,15.5672343 38.5888215,16.1153951 C38.0404472,16.6634196 37.1515875,16.6634877 36.6033495,16.1153951 C36.4044548,15.9166213 36.1400795,15.8070163 35.8588741,15.8070163 C35.5776688,15.8070163 35.3132253,15.9165531 35.1143988,16.1153951 C34.7037994,16.5258856 34.7037994,17.1936649 35.1143988,17.6040191 C35.6627049,18.1521798 35.6627049,19.0408038 35.1143988,19.5888965 C34.8402116,19.8630109 34.4809202,20 34.1216287,20 Z" id="Path" fill="#C98A2E" fill-rule="nonzero"></path>
            <circle id="Oval" fill="#674230" fill-rule="nonzero" cx="35.5" cy="16.5" r="2.5"></circle>
            <path d="M33.0074968,16.3890276 C33.0065602,16.399215 33.0056956,16.4093292 33.004903,16.4195166 C32.9340767,17.2938762 33.6401782,18.0308155 34.5020543,17.9990072 C34.5591189,17.9968818 34.6166878,17.9929241 34.6744728,17.9869876 C35.8973974,17.8615137 36.8779418,16.8557436 36.9925032,15.6108989 C36.9934398,15.6007115 36.9943044,15.5905973 36.995097,15.5804832 C37.0659233,14.7062702 36.3598218,13.9691843 35.4979457,14.0009926 C35.4408811,14.003118 35.3833122,14.0070757 35.3255272,14.0130123 C34.1026747,14.1384129 33.1221303,15.1441829 33.0074968,16.3890276 Z" id="Path" fill="#7A5436" fill-rule="nonzero"></path>
            <path d="M23.1216287,28 C22.7623372,28 22.4030458,27.8629428 22.1289268,27.5888965 C20.6236911,26.0840599 20.6236911,23.6354223 22.1289268,22.1304496 C22.8581392,21.4014305 23.827538,21 24.8588741,21 C25.8902103,21 26.859609,21.4014986 27.5888215,22.1304496 C28.1370595,22.6786104 28.1370595,23.5672343 27.5888215,24.1153951 C27.0404472,24.6634196 26.1515875,24.6634877 25.6033495,24.1153951 C25.4045229,23.9165531 25.1400795,23.8070163 24.8588741,23.8070163 C24.5776688,23.8070163 24.3132253,23.9165531 24.1143988,24.1153951 C23.7037994,24.5258856 23.7037994,25.1936649 24.1143988,25.6040191 C24.6627049,26.1521798 24.6627049,27.0408038 24.1143988,27.5888965 C23.8402116,27.8630109 23.480852,28 23.1216287,28 Z" id="Path" fill="#C98A2E" fill-rule="nonzero"></path>
            <circle id="Oval" fill="#674230" fill-rule="nonzero" cx="24.5" cy="25.5" r="2.5"></circle>
            <path d="M22.0075689,24.3890276 C22.0066322,24.399215 22.0057676,24.4093292 22.004903,24.4195166 C21.9340767,25.2938762 22.6401782,26.0308155 23.5020543,25.9990072 C23.5591189,25.9968818 23.6166878,25.9929241 23.6744728,25.9869876 C24.8973974,25.8615137 25.8779418,24.8557436 25.9925032,23.6108989 C25.9934398,23.6007115 25.9943044,23.5905973 25.995097,23.5804832 C26.0659233,22.7062702 25.3598218,21.9691843 24.4979457,22.0009926 C24.4408811,22.003118 24.3833122,22.0070757 24.3255272,22.0130123 C23.1027467,22.1384129 22.1222023,23.1441829 22.0075689,24.3890276 Z" id="Path" fill="#7A5436" fill-rule="nonzero"></path>
            <g id="Group" transform="translate(10.000000, 9.000000)" fill="#AD712C" fill-rule="nonzero">
                <ellipse id="Oval" cx="6.47619347" cy="18.4942141" rx="1" ry="1"></ellipse>
                <ellipse id="Oval" cx="9.95815385" cy="18.4942141" rx="1" ry="1"></ellipse>
                <ellipse id="Oval" cx="8.21713986" cy="15.3262415" rx="1" ry="1"></ellipse>
                <ellipse id="Oval" cx="1.94962471" cy="21.6621868" rx="1" ry="1"></ellipse>
                <ellipse id="Oval" cx="8.91354545" cy="29.4061503" rx="1" ry="1"></ellipse>
                <ellipse id="Oval" cx="11.0027622" cy="26.5901822" rx="1" ry="1"></ellipse>
                <ellipse id="Oval" cx="14.4847226" cy="22.3661959" rx="1" ry="1"></ellipse>
                <ellipse id="Oval" cx="20.0558322" cy="20.2541686" rx="1" ry="1"></ellipse>
                <ellipse id="Oval" cx="18.6630886" cy="21.6621868" rx="1" ry="1"></ellipse>
                <ellipse id="Oval" cx="20.7522378" cy="23.7741458" rx="1" ry="1"></ellipse>
                <ellipse id="Oval" cx="20.7522378" cy="27.9981321" rx="1" ry="1"></ellipse>
                <ellipse id="Oval" cx="28.4125641" cy="13.2142141" rx="1" ry="1"></ellipse>
                <ellipse id="Oval" cx="26.3233473" cy="27.294123" rx="1" ry="1"></ellipse>
                <ellipse id="Oval" cx="15.8774662" cy="0.542323462" rx="1" ry="1"></ellipse>
                <ellipse id="Oval" cx="3.3424359" cy="6.87826879" rx="1" ry="1"></ellipse>
                <ellipse id="Oval" cx="0.55681352" cy="11.1022551" rx="1" ry="1"></ellipse>
                <ellipse id="Oval" cx="8.56534266" cy="12.1582005" rx="1" ry="1"></ellipse>
                <ellipse id="Oval" cx="10.6545594" cy="11.1022551" rx="1" ry="1"></ellipse>
                <ellipse id="Oval" cx="8.56534266" cy="10.0462415" rx="1" ry="1"></ellipse>
                <ellipse id="Oval" cx="18.3148858" cy="15.3262415" rx="1" ry="1"></ellipse>
                <ellipse id="Oval" cx="13.788317" cy="4.76624146" rx="1" ry="1"></ellipse>
                <ellipse id="Oval" cx="20.404035" cy="11.1022551" rx="1" ry="1"></ellipse>
                <ellipse id="Oval" cx="21.4486434" cy="14.2702278" rx="1" ry="1"></ellipse>
                <ellipse id="Oval" cx="23.5377925" cy="14.2702278" rx="1" ry="1"></ellipse>
                <ellipse id="Oval" cx="23.5377925" cy="16.3821868" rx="1" ry="1"></ellipse>
                <ellipse id="Oval" cx="19.7076294" cy="3.71029613" rx="1" ry="1"></ellipse>
                <ellipse id="Oval" cx="21.7968462" cy="2.65428246" rx="1" ry="1"></ellipse>
            </g>
        </g>
    </g>
</svg>