<?xml version="1.0" encoding="UTF-8"?>
<svg width="322px" height="389px" viewBox="0 0 322 389" version="1.1" xmlns="http://www.w3.org/2000/svg" xmlns:xlink="http://www.w3.org/1999/xlink">
    <!-- Generator: Sketch 63.1 (92452) - https://sketch.com -->
    <title>cupcake-chocolate</title>
    <desc>Created with Sketch.</desc>
    <g id="cupcakes" stroke="none" stroke-width="1" fill="none" fill-rule="evenodd">
        <g id="cupcake-chocolate" fill-rule="nonzero">
            <path d="M317.288466,227.838496 C316.888466,224.838496 315.688466,222.038496 313.988466,219.738496 C322.488466,210.138496 324.188466,195.738496 318.588466,179.438496 C313.088466,163.538496 300.088466,146.538496 286.288466,144.938496 C289.688466,137.938496 291.188466,130.438496 290.488466,123.338496 C289.588466,114.238496 284.988466,106.038496 278.088466,101.038496 C277.088466,89.6384964 260.388466,77.6384964 253.688466,74.6384964 C235.988466,66.8384964 219.788466,64.1384964 207.888466,62.0384964 C203.988466,61.3384964 200.588466,60.8384964 197.688466,60.1384964 C194.088466,59.3384964 190.888466,57.2384964 188.688466,54.3384964 C187.888466,53.3384964 186.988466,52.2384964 185.988466,51.1384964 C190.588466,41.9384964 191.788466,30.9384964 188.388466,20.3384964 C182.088466,0.338496366 160.988466,-4.66150363 144.788466,4.23849637 C142.188466,5.63849637 139.388466,6.53849637 136.388466,6.73849637 C115.988466,8.23849637 104.788466,23.8384964 109.688466,42.9384964 C111.788466,51.2384964 116.288466,58.3384964 122.288466,63.6384964 C111.588466,71.2384964 104.288466,80.6384964 100.388466,91.6384964 C93.3884656,91.9384964 75.4884656,97.0384964 64.5884656,109.538496 C57.7884656,117.238496 54.8884656,126.438496 55.9884656,136.738496 C37.1884656,139.138496 20.3884656,151.538496 10.7884656,170.438496 C2.8884656,185.838496 1.7884656,201.638496 7.9884656,211.738496 C10.2884656,215.438496 12.5884656,218.638496 15.0884656,221.138496 C13.7884656,222.738496 12.6884656,224.838496 12.1884656,227.138496 C11.9884656,227.138496 11.7884656,227.038496 11.5884656,227.038496 C11.5884656,227.038496 6.9884656,227.038496 8.0884656,230.538496 L62.1884656,366.238496 C62.5884656,367.338496 63.4884656,368.138496 64.4884656,368.638496 C77.9884656,374.238496 171.388466,410.838496 271.188466,368.338496 C272.288466,367.838496 273.188466,366.938496 273.588466,365.738496 L319.188466,230.938496 C319.488466,230.038496 319.188466,229.238496 318.488466,228.538496 C318.188466,228.238496 317.688466,228.038496 317.288466,227.838496 Z M114.788466,41.0384964 C113.088466,34.2384964 113.788466,27.8384964 116.888466,22.9384964 C117.088466,22.5384964 117.688466,22.6384964 117.888466,23.0384964 C119.088466,25.5384964 117.688466,35.1384964 120.988466,43.1384964 C123.488466,49.0384964 128.388466,54.1384964 131.088466,58.2384964 C131.588466,59.0384964 132.088466,59.8384964 132.388466,60.5384964 C132.688466,61.2384964 132.888466,61.8384964 132.888466,62.4384964 C132.888466,62.8384964 132.488466,63.1384964 132.088466,62.9384964 C131.388466,62.5384964 130.688466,62.2384964 130.088466,61.8384964 C129.288466,61.3384964 128.388466,60.7384964 127.588466,60.1384964 C121.488466,55.7384964 116.888466,49.0384964 114.788466,41.0384964 Z" id="Shape" fill="#512A21"></path>
            <path d="M306.8,222.7 C302.6,226.2 297.2,228 291.7,227.9 C290.5,227.9 289.3,227.7 288.1,227.5 C286.7,227.2 285.4,227 284.2,226.8 C284.1,226.8 283.9,226.8 283.8,226.8 C282.8,226.8 281.9,227.3 281.3,228.1 C281,228.5 280.8,228.9 280.5,229.4 C278.1,233.2 276.4,235.8 274.5,237 C272.2,238.5 269.4,239.2 266.3,239.1 C263.2,239 259.9,238.2 256,236.6 C255.3,236.3 254.5,236 253.8,235.7 C250.1,234.1 246.7,232.6 243.2,232.5 C242.6,232.5 242,232.5 241.5,232.6 C238.6,233 235.8,234.5 232.9,236.2 C231.3,237.1 229.7,238 228,238.8 C223.5,240.8 219.3,241.8 215.1,241.7 C214.1,241.7 213,241.6 212,241.4 C208.8,240.9 206.2,239.3 203.7,237.7 C202.3,236.8 200.9,235.9 199.6,235.4 C198.2,234.8 196.6,234.5 195,234.4 C193.1,234.4 191.2,234.7 189.5,235.5 C188.4,236 184.8,238 184.3,238.3 C180.4,240.8 176,242 171.3,241.8 C165.6,241.6 160.7,239.6 157.5,238 C155.8,237.1 153.9,236.6 152.1,236.6 C150.4,236.6 148.8,236.8 147.3,237.5 C146.2,238 145,238.5 143.8,239.1 C139.7,241 135,243.2 129.2,243.1 C128.7,243.1 128.1,243.1 127.6,243 C120.9,242.3 116.2,238.7 113.4,235.8 C111.2,233.6 108.3,232.3 105.4,232.2 C104.8,232.2 104.1,232.2 103.5,232.3 C99.1,233 95.5,234.9 92.1,236.6 C88.1,238.7 84.3,240.7 79.7,240.5 C79.5,240.5 79.3,240.5 79.1,240.5 C76.1,240.3 73.1,239.1 70.6,237.1 C62.4,230.6 52.6,227.1 41.7,226.8 C36,226.6 31.3,227.4 28.4,228 C27.2,228.3 26,228.4 24.8,228.3 C22.7,228.2 20.5,227.7 18.7,226.7 C13.4,223.8 8.6,218.9 4.2,211.6 C-2,201.5 -0.9,185.7 7,170.3 C16.7,151.4 33.4,139 52.2,136.6 C51.2,126.3 54.1,117.2 60.8,109.4 C71.7,96.9 89.6,91.9 96.6,91.5 C100.5,80.5 107.9,71.1 118.5,63.5 C119.2,64.1 119.9,64.7 120.7,65.3 C126.4,69.7 133.3,72.5 140.6,73.4 C142.4,73.6 144.2,73.7 146.1,73.7 C148.4,73.7 150.6,73.4 152.9,73 C157.4,72.2 161.6,70.6 165.3,68.6 C166.9,67.7 168.5,66.7 170,65.6 C174.4,62.3 178.1,58.2 180.8,53.6 C181.3,52.8 181.7,52 182.2,51.1 C183.2,52.2 184.1,53.2 184.9,54.3 C187.1,57.2 190.3,59.3 193.9,60.1 C196.8,60.8 200.1,61.3 204.1,62 C216,64 232.2,66.8 249.9,74.6 C256.6,77.6 273.3,89.6 274.3,101 C281.2,106 285.8,114.3 286.7,123.3 C287.4,130.4 286,137.9 282.5,144.9 C296.3,146.5 309.3,163.5 314.8,179.4 C320.9,197.4 318.1,213.3 306.8,222.7 Z" id="Path" fill="#603735"></path>
            <path d="M279.271437,145 C279.071437,145 278.871437,144.8 278.971437,144.6 C283.271437,137.5 285.671437,129.2 284.771437,120.9 C283.971437,112.7 279.671437,104.7 272.871437,100 C272.571437,99.8 272.471437,99.5 272.471437,99.2 C272.371437,89.7 256.971437,77.6 249.671437,74.4 C226.571437,64.2 205.971437,62.8 194.171437,60.1 C189.971437,59.1 186.271437,56.8 183.671437,53.3 C183.071437,52.6 182.471437,51.8 181.771437,51 C179.071437,55.6 175.371437,59.7 170.971437,63 C171.371437,68.1 189.771437,76.9 205.971437,84.8 C233.471437,98 267.671437,114.5 272.471437,135.4 L272.471437,135.4 C269.671437,136 266.871437,134.6 265.671437,132.1 C257.571437,115.6 227.871437,101.3 203.671437,89.6 C182.571437,79.4 169.471437,72.8 166.371437,66 C162.671437,68.1 158.471437,69.6 153.971437,70.4 C151.671437,70.8 149.371437,71.1 147.171437,71.1 C146.971437,71.9 146.871437,72.6 146.871437,73.4 C147.171437,77.5 151.871437,86.3 180.671437,98.5 C181.371437,98.8 181.971437,99 182.271437,99.2 L232.971437,122.3 C231.771437,125 228.571437,126.2 225.871437,124.9 L180.071437,104 C179.771437,103.9 179.271437,103.7 178.571437,103.4 C154.271437,93.1 142.071437,83.4 141.471437,73.7 C141.371437,72.7 141.471437,71.8 141.671437,70.8 C134.371437,69.9 127.471437,67.1 121.771437,62.7 C111.871437,69.6 103.671437,78.9 99.6714368,91.2 C99.5714368,91.4 99.3714368,91.6 99.1714368,91.5 C92.0714368,90.7 50.5714368,101.8 56.2714368,136.2 C16.7714368,139.1 -5.0285632,186.9 7.5714368,207.4 C10.9714368,213 15.3714368,218.5 21.0714368,221.5 C23.4714368,222.8 26.2714368,223.1 28.8714368,222.5 C36.4714368,220.8 56.0714368,218.3 73.3714368,232.1 C75.3714368,233.7 77.8714368,234.7 80.3714368,234.9 C88.1714368,235.4 93.8714368,228.3 104.171437,226.7 C108.671437,226 113.271437,227.7 116.471437,231 C119.071437,233.7 123.271437,236.8 129.071437,237.4 C136.471437,238.2 142.071437,234.4 147.471437,232.1 C151.471437,230.4 156.071437,230.7 159.971437,232.8 C164.871437,235.3 174.871437,239.1 184.171437,233.2 C184.771437,232.8 188.471437,230.7 189.671437,230.2 C193.471437,228.5 198.071437,228.4 201.871437,230.1 C205.971437,231.8 209.271437,235.3 213.671437,236 C218.771437,236.8 223.471437,235.8 228.171437,233.6 C232.971437,231.4 237.271437,227.8 242.471437,227.2 C247.971437,226.5 253.171437,229.3 258.371437,231.4 C263.471437,233.5 269.671437,235 274.271437,232 C276.071437,230.9 278.271437,227 280.171437,224 C281.371437,222.1 283.571437,221.1 285.771437,221.5 C286.971437,221.7 288.371437,222 289.771437,222.2 C295.671437,223.3 301.771437,221.8 306.271437,218 C332.471437,196.3 301.571437,141.7 279.271437,145 Z M118.071437,76.1 L118.471437,76.3 C120.571437,77.6 121.671437,79.9 121.471437,82.4 C121.371437,83.6 121.671437,84.9 122.171437,86.3 C125.871437,95.3 142.771437,105.9 160.871437,110.5 C160.171437,113.4 157.071437,115.1 154.271437,114.2 C138.371437,109.2 121.671437,99.3 117.271437,88.4 C115.471437,84 115.771437,79.8 118.071437,76.1 Z M40.8714368,203 C34.7714368,200 29.4714368,193.9 26.0714368,185.7 C25.0714368,183.2 24.2714368,181 23.8714368,178.9 C22.4714368,172.8 23.0714368,166.3 25.3714368,160.5 C28.0714368,161.6 29.4714368,164.4 28.9714368,167.2 C28.2714368,170.7 28.3714368,174.3 29.0714368,177.7 C29.4714368,179.5 30.0714368,181.5 31.0714368,183.6 C32.8714368,187.9 38.0714368,197.9 47.5714368,199.6 C46.9714368,202.7 43.6714368,204.4 40.8714368,203 Z M105.771437,215.4 C100.971437,208.1 93.4714368,202.6 86.5714368,198.1 C81.1714368,194.6 75.5714368,191.2 69.8714368,188.2 C69.0714368,187.8 68.2714368,187.4 67.5714368,187 C63.0714368,184.6 58.3714368,182.2 54.2714368,178.8 C48.5714368,174.1 44.8714368,168.3 43.9714368,162.4 C42.8714368,154.9 46.5714368,147.5 52.7714368,144.7 L52.8714368,145 C53.9714368,147.3 53.4714368,150 51.7714368,152 C49.6714368,154.5 48.6714368,158.1 49.1714368,161.6 C49.8714368,166.2 52.7714368,170.8 57.4714368,174.6 C61.1714368,177.6 65.4714368,179.8 69.9714368,182.2 C70.7714368,182.6 71.5714368,183 72.3714368,183.4 C78.1714368,186.5 83.9714368,189.9 89.4714368,193.5 C98.2714368,199.3 107.971437,206.7 112.971437,217.4 C110.471437,218.8 107.371437,217.8 105.771437,215.4 Z M154.271437,210.7 C149.071437,199.9 138.971437,192.3 131.071437,187.6 C124.671437,183.8 117.771437,180.7 110.971437,177.6 C105.671437,175.2 100.271437,172.8 95.0714368,170 C87.5714368,166 78.4714368,160.3 73.8714368,150.8 C76.4714368,149.6 79.4714368,150.3 81.1714368,152.6 C85.4714368,158.4 91.9714368,162.4 97.5714368,165.3 C102.671437,168 107.971437,170.4 113.171437,172.8 C120.071437,175.9 127.071437,179.1 133.771437,183 C147.971437,191.4 157.471437,202 161.271437,213.7 C158.471437,214.6 155.471437,213.3 154.271437,210.7 Z M225.171437,214.8 C214.171437,204.5 200.271437,197.7 186.771437,191.1 C185.071437,190.3 181.871437,188.9 177.871437,187 C163.271437,180.3 147.971437,173.2 133.571437,166 C133.471437,166 133.371437,165.9 133.271437,165.9 C128.771437,163.7 124.471437,161.2 120.371437,158.4 C112.171437,153 98.4714368,143.7 94.1714368,137.8 C91.8714368,134.7 90.1714368,131.4 89.3714368,127.7 C87.8714368,121 89.5714368,113.8 94.3714368,106.4 C96.0714368,107.5 96.9714368,109.4 96.9714368,111.4 C96.9714368,112.2 96.7714368,113 96.3714368,113.7 C94.2714368,118.2 93.6714368,122.4 94.5714368,126.5 C96.3714368,134.4 112.071437,146.1 121.871437,152.9 C126.671437,156.2 131.671437,159.1 136.971437,161.8 C153.871437,170.3 169.971437,177.6 180.071437,182.2 C184.271437,184.1 187.371437,185.5 189.071437,186.4 C203.871437,193.6 220.571437,201.8 232.771437,214.9 C230.571437,216.8 227.271437,216.8 225.171437,214.8 Z M270.571437,213 C259.571437,202.7 245.671437,195.9 232.171437,189.3 C230.471437,188.5 227.371437,187 223.271437,185.2 C172.671437,162.2 114.271437,133.4 111.471437,114.8 C114.171437,114.4 116.971437,115.6 118.471437,117.9 C122.071437,123.4 132.471437,133 160.971437,148.7 C184.471437,161.7 211.271437,173.8 225.571437,180.4 C229.771437,182.3 232.871437,183.7 234.571437,184.5 C249.371437,191.7 266.071437,199.9 278.271437,213 C276.071437,215 272.771437,215 270.571437,213 Z M296.171437,204.1 C285.071437,190.2 254.471437,175.2 227.271437,161.9 C199.971437,148.5 176.371437,136.9 169.771437,126.4 C172.171437,124.9 175.271437,125.2 177.271437,127.1 C186.071437,135.7 207.271437,146.1 229.571437,157 C261.771437,172.8 294.971437,189.1 303.571437,205.6 C301.071437,206.9 297.971437,206.3 296.171437,204.1 Z" id="Shape" fill="#3B0C0A"></path>
            <path d="M314.5,228.4 C312.4,226.4 308.9,227.2 307.7,229.9 C307.6,230.2 307.4,230.5 307.3,230.8 C306.4,232.9 305.1,234.9 303.4,236.6 C302.2,237.9 300.6,239.2 298.6,239.3 C297.6,239.4 296.5,239.1 295.6,238.8 C291.6,237.6 287.1,234.4 283.4,234.3 C282.8,234.3 282.3,234.4 281.8,234.7 C280.6,235.4 280,236.8 279.4,238 C278.4,240 277,241.9 275.3,243.6 C274,244.8 272.4,246 270.5,246 C269.5,246 268.5,245.7 267.6,245.3 C263.5,243.9 258.5,239.6 255.2,240.2 C253.5,240.5 252.7,242.2 251.9,243.6 C250.8,245.6 249.3,247.4 247.5,249 C246.2,250.2 244.5,251.3 242.7,251.2 C241.7,251.2 240.8,250.8 239.9,250.4 C236,248.8 231.4,244.2 228,244.8 C226.3,245.1 225.4,246.7 224.6,248.1 C223.4,250 221.8,251.8 220,253.3 C218.7,254.4 217,255.4 215.2,255.3 C214.2,255.2 213.3,254.8 212.5,254.4 C208.7,252.6 204.7,247.9 201.1,248.2 C199.4,248.4 198.5,250 197.5,251.3 C196.2,253.2 194.6,254.8 192.7,256.2 C191.3,257.2 189.6,258.2 187.8,257.9 C186.8,257.8 186,257.3 185.1,256.8 C181.4,254.8 177.8,249.8 174.1,250.1 C172.5,250.2 171.4,251.8 170.4,253 C169,254.8 167.3,256.4 165.4,257.7 C165.3,257.8 165.2,257.8 165.1,257.9 C162.1,259.6 158.5,259.6 155.5,257.9 C155.4,257.8 155.2,257.7 155.1,257.7 C153.2,256.4 151.5,254.8 150.1,253 C149.1,251.7 148.1,250.2 146.4,250.1 C142.8,249.9 139.1,254.8 135.4,256.8 C134.6,257.3 133.7,257.7 132.7,257.9 C130.9,258.1 129.2,257.2 127.8,256.2 C125.9,254.8 124.3,253.1 123,251.3 C122.1,250 121.1,248.4 119.4,248.2 C115.8,247.9 111.8,252.6 108,254.4 C107.1,254.8 106.2,255.2 105.3,255.3 C103.5,255.5 101.8,254.4 100.5,253.3 C98.7,251.8 97.1,250 95.9,248.1 C95.1,246.8 94.1,245.1 92.5,244.8 C89.1,244.2 84.5,248.8 80.6,250.4 C79.7,250.8 78.8,251.1 77.8,251.2 C76,251.3 74.3,250.2 73,249 C71.2,247.4 69.7,245.6 68.6,243.6 C67.8,242.2 67,240.5 65.3,240.2 C62,239.5 57,243.8 52.9,245.3 C52,245.6 51,246 50,246 C48.1,246 46.5,244.8 45.2,243.6 C43.5,241.9 42.1,240 41.1,238 C40.5,236.8 39.9,235.4 38.7,234.7 C38.2,234.4 37.7,234.3 37.1,234.3 C33.4,234.4 28.9,237.6 24.9,238.8 C23.9,239.1 22.9,239.4 21.9,239.3 C20,239.2 18.4,237.9 17.1,236.6 C15.4,234.8 14.1,232.9 13.2,230.8 C13.2,230.8 13.2,230.8 13.2,230.8 C12.2,228.5 10,227 7.5,226.9 C7.5,226.9 2.9,226.9 4,230.4 L58.1,366.2 C58.5,367.3 59.4,368.1 60.4,368.6 C73.9,374.2 167.3,410.8 267.1,368.3 C268.2,367.8 269.1,366.9 269.5,365.7 L315.1,230.9 C315.5,229.9 315.2,229.1 314.5,228.4 Z" id="Path" fill="#A0080A"></path>
            <path d="M298,249.8 C297.8,249.8 297.6,249.8 297.4,249.8 C295.7,249.8 294.2,249.4 293.2,249.1 C291.2,248.5 289.3,247.6 287.4,246.7 C286.1,246.1 284.6,245.4 283.5,245 C283.5,245.1 283.3,245.5 283.3,245.5 C282,248.1 280.3,250.5 278.1,252.6 C275.4,255.2 272.6,256.5 269.5,256.6 C267.6,256.6 265.9,256 264.8,255.6 C262.9,254.9 261,253.9 259.2,252.9 C258.2,252.4 256.8,251.6 255.8,251.1 C255.8,251.2 255.5,251.6 255.5,251.6 C254.1,254.1 252.3,256.4 250,258.4 C247.4,260.8 244.6,262 241.8,262 C241.7,262 241.6,262 241.4,262 C239.4,261.9 237.8,261.3 236.7,260.8 C234.8,260 233.1,258.9 231.4,257.8 C230.5,257.2 229.2,256.4 228.3,255.9 C228.3,256 228,256.3 228,256.3 C226.5,258.7 224.5,260.9 222.3,262.8 C219.7,264.9 217.1,266 214.4,266 C214.1,266 213.8,266 213.6,266 C211.6,265.8 210.1,265.1 209,264.6 C207.2,263.7 205.5,262.5 203.9,261.3 C203.1,260.7 201.9,259.8 201,259.3 C201,259.4 200.7,259.7 200.7,259.7 C199.1,262.1 197.1,264.1 194.7,265.9 C192.1,267.8 189.7,268.7 187.2,268.7 C186.8,268.7 186.3,268.7 185.9,268.6 C183.9,268.3 182.4,267.5 181.4,266.9 C179.6,265.9 178,264.6 176.5,263.3 C175.8,262.7 174.7,261.8 173.9,261.2 C173.9,261.3 173.6,261.6 173.6,261.6 C171.9,263.9 169.8,265.8 167.4,267.5 C167.2,267.6 166.9,267.8 166.7,267.9 C164.4,269.2 161.9,269.9 159.2,269.9 C156.6,269.9 154,269.2 151.8,268 C151.5,267.8 151.2,267.7 151,267.5 C148.6,265.9 146.5,263.9 144.7,261.6 C144.7,261.6 144.4,261.3 144.4,261.2 C143.6,261.7 142.5,262.7 141.8,263.3 C140.3,264.6 138.7,265.9 136.9,266.9 C135.9,267.5 134.4,268.3 132.4,268.6 C132,268.7 131.5,268.7 131.1,268.7 C128.6,268.7 126.1,267.8 123.6,265.9 C121.3,264.1 119.2,262.1 117.6,259.7 C117.6,259.7 117.4,259.3 117.3,259.3 C116.4,259.8 115.2,260.7 114.4,261.3 C112.8,262.5 111.2,263.7 109.3,264.6 C108.3,265.1 106.7,265.9 104.7,266 C104.4,266 104.1,266 103.9,266 C101.2,266 98.7,265 96,262.8 C93.7,260.9 91.8,258.8 90.3,256.3 C90.3,256.3 90.1,255.9 90,255.9 C89.1,256.4 87.8,257.2 86.9,257.8 C85.2,258.9 83.5,260 81.6,260.8 C80.5,261.2 78.9,261.9 76.9,262 C76.8,262 76.7,262 76.5,262 C73.7,262 70.9,260.8 68.3,258.4 C66.1,256.4 64.2,254.1 62.8,251.6 C62.8,251.6 62.6,251.2 62.5,251.1 C61.5,251.5 60.1,252.3 59.1,252.9 C57.3,253.9 55.4,255 53.5,255.6 C52.4,256 50.8,256.6 48.8,256.6 C48.8,256.6 48.8,256.6 48.8,256.6 C45.8,256.6 43,255.2 40.3,252.6 C38.1,250.5 36.4,248.1 35.1,245.5 C35.1,245.5 34.9,245.1 34.9,245 C33.8,245.4 32.2,246.1 31,246.7 C29.2,247.6 27.3,248.5 25.2,249.1 C24.1,249.4 22.7,249.8 21,249.8 C20.8,249.8 20.6,249.8 20.4,249.8 C17.8,249.6 15.3,248.5 13,246.4 L61.9,368.8 C73.5,373.6 113.4,388.2 164.9,388.2 C164.9,388.2 164.9,388.2 164.9,388.2 C199.6,388.2 232.8,381.6 263.6,368.6 L304.8,247 C302.6,248.7 300.4,249.7 298,249.8 Z M65.3,366.7 L65.3,366.7 C64.1,367.1 62.7,366.4 62.3,365.2 L27.5,255.7 C27.1,254.5 27.8,253.1 29,252.7 L29,252.7 C30.2,252.3 31.6,253 32,254.2 L66.8,363.7 C67.2,365 66.5,366.3 65.3,366.7 Z M82.7,371.8 L82.7,371.8 C81.4,372.1 80.2,371.3 79.9,370 L55.3,261.7 C55,260.4 55.8,259.2 57.1,258.9 L57.1,258.9 C58.4,258.6 59.6,259.4 59.9,260.7 L84.5,369 C84.8,370.2 84,371.5 82.7,371.8 Z M99.8,375.8 L99.8,375.8 C98.5,375.9 97.3,375 97.2,373.7 L85.6,268.4 C85.5,267.1 86.4,265.9 87.7,265.8 L87.7,265.8 C89,265.7 90.2,266.6 90.3,267.9 L101.9,373.2 C102.1,374.5 101.1,375.6 99.8,375.8 Z M118.8,380.3 L118.8,380.3 C117.5,380.4 116.4,379.4 116.3,378.1 L110.4,269.6 C110.3,268.3 111.3,267.2 112.6,267.1 L112.6,267.1 C113.9,267 115,268 115.1,269.3 L121,377.8 C121.1,379.2 120.1,380.3 118.8,380.3 Z M141,382.9 L141,382.9 C139.7,382.9 138.6,381.9 138.6,380.6 L137.7,271.7 C137.7,270.4 138.7,269.3 140,269.3 L140,269.3 C141.3,269.3 142.4,270.3 142.4,271.6 L143.3,380.5 C143.3,381.8 142.3,382.9 141,382.9 Z M170.7,383.6 L170.7,383.6 C169.4,383.6 168.3,382.5 168.3,381.2 L168.3,271.6 C168.3,270.3 169.4,269.2 170.7,269.2 L170.7,269.2 C172,269.2 173.1,270.3 173.1,271.6 L173.1,381.2 C173.1,382.6 172,383.6 170.7,383.6 Z M194.9,379.5 C194.8,380.8 193.7,381.8 192.4,381.7 L192.4,381.7 C191.1,381.6 190.1,380.5 190.2,379.2 L195.7,269.3 C195.8,268 196.9,267 198.2,267.1 L198.2,267.1 C199.5,267.2 200.5,268.3 200.4,269.6 L194.9,379.5 Z M227.9,266.3 L214,376.6 C213.8,377.9 212.7,378.8 211.4,378.6 L211.4,378.6 C210.1,378.4 209.2,377.3 209.4,376 L223.3,265.7 C223.5,264.4 224.6,263.5 225.9,263.7 L225.9,263.7 C227.1,263.8 228,265 227.9,266.3 Z M230,374.2 L230,374.2 C228.7,373.9 227.9,372.7 228.2,371.4 L250.9,260.7 C251.2,259.4 252.4,258.6 253.7,258.9 L253.7,258.9 C255,259.2 255.8,260.4 255.5,261.7 L232.8,372.4 C232.5,373.6 231.2,374.4 230,374.2 Z M283.3,255.6 L248.1,367.8 C247.7,369 246.4,369.7 245.1,369.3 C243.9,368.9 243.2,367.6 243.6,366.3 L278.8,254.1 C279.2,252.9 280.5,252.2 281.8,252.6 C283,253 283.7,254.4 283.3,255.6 Z" id="Shape" fill="#D50A0D"></path>
            <path d="M189.844066,20.3384964 C183.544066,0.338496366 162.444066,-4.66150363 146.244066,4.23849637 C143.644066,5.63849637 140.844066,6.53849637 137.844066,6.73849637 C117.444066,8.23849637 106.244066,23.8384964 111.144066,42.9384964 C113.244066,51.2384964 117.744066,58.3384964 123.744066,63.6384964 C124.444066,64.2384964 125.144066,64.8384964 125.944066,65.4384964 C131.644066,69.8384964 138.544066,72.6384964 145.844066,73.5384964 C147.644066,73.7384964 149.444066,73.8384964 151.344066,73.8384964 C153.644066,73.8384964 155.844066,73.5384964 158.144066,73.1384964 C162.644066,72.3384964 166.844066,70.7384964 170.544066,68.7384964 C172.144066,67.8384964 173.744066,66.8384964 175.244066,65.7384964 C179.644066,62.4384964 183.344066,58.3384964 186.044066,53.7384964 C186.544066,52.9384964 186.944066,52.1384964 187.444066,51.2384964 C192.044066,41.9384964 193.244066,30.9384964 189.844066,20.3384964 Z M133.544066,62.9384964 C132.844066,62.5384964 132.144066,62.2384964 131.544066,61.8384964 C130.744066,61.3384964 129.844066,60.7384964 129.044066,60.1384964 C122.944066,55.6384964 118.244066,48.9384964 116.244066,40.9384964 C114.544066,34.1384964 115.244066,27.7384964 118.344066,22.8384964 C118.544066,22.4384964 119.144066,22.5384964 119.344066,22.9384964 C120.544066,25.4384964 119.144066,35.0384964 122.444066,43.0384964 C124.944066,48.9384964 129.844066,54.0384964 132.544066,58.1384964 C133.044066,58.9384964 133.544066,59.7384964 133.844066,60.4384964 C134.144066,61.1384964 134.344066,61.7384964 134.344066,62.3384964 C134.344066,62.8384964 133.944066,63.1384964 133.544066,62.9384964 Z" id="Shape" fill="#D60007"></path>
        </g>
    </g>
</svg>